ffmpeg started on 2025-06-30 at 14:39:53
Report written to "D:\Convert\FFMetrics\reports\psnr_report-6.txt"
Log level: 32
Command line:
ffmpeg -hide_banner -nostdin -i "G:\\\xc0\xed\xe8\xec\xe5\\\xce\xed\xe3\xee\xe8\xed\xe3\xe8\\!_37_\xc7\xe8\xec\xe0_2025\\JamClub\\\xc3\xee\xf1\xef\xee\xe4\xe8\xed \xe8 \xef\xb8\xf1\\JamClub_Tono_to_Inu_Woof_Woof!_S01E09_1080p_HEVC.mkv" -i "G:\\\xc0\xed\xe8\xec\xe5\\\xce\xed\xe3\xee\xe8\xed\xe3\xe8\\!_37_\xc7\xe8\xec\xe0_2025\\JamClub\\\xc3\xee\xf1\xef\xee\xe4\xe8\xed \xe8 \xef\xb8\xf1\\JamClub_Tono_to_Inu_Woof_Woof!_S01E09_1080p.mp4" -lavfi "[0:v]settb=AVTB,setpts=PTS-STARTPTS,format=pix_fmts=yuv420p10,fps=24000/1001,scale=1920:1080:flags=bicubic[main];[1:v]settb=AVTB,setpts=PTS-STARTPTS,format=pix_fmts=yuv420p,fps=24000/1001,scale=1920:1080:flags=bicubic[ref];[main][ref]psnr=eof_action=endall:stats_file='D\\:/Convert/FFMetrics/logs/psnr_logfile-6.txt'" -f null -
Input #0, matroska,webm, from 'G:\Аниме\Онгоинги\!_37_Зима_2025\JamClub\Господин и пёс\JamClub_Tono_to_Inu_Woof_Woof!_S01E09_1080p_HEVC.mkv':
  Metadata:
    COMPATIBLE_BRANDS: qt  
    MAJOR_BRAND     : qt  
    MINOR_VERSION   : 512
    ENCODER         : Lavf61.7.100
  Duration: 00:02:56.73, start: -0.021000, bitrate: 1725 kb/s
  Stream #0:0(eng): Video: hevc (Main 10), yuv420p10le(tv, bt709, progressive), 1920x1080 [SAR 1:1 DAR 16:9], 23.98 fps, 23.98 tbr, 1k tbn (default)
      Metadata:
        HANDLER_NAME    : VideoHandler
        VENDOR_ID       : FFMP
        ENCODER         : Lavc61.19.100 libx265
        BPS             : 1534467
        DURATION        : 00:02:56.676708333
        NUMBER_OF_FRAMES: 4236
        NUMBER_OF_BYTES : 33887953
        _STATISTICS_WRITING_APP: mkvpropedit v66.0.0 ('Josie') 64-bit
        _STATISTICS_WRITING_DATE_UTC: 2025-06-28 15:55:47
        _STATISTICS_TAGS: BPS DURATION NUMBER_OF_FRAMES NUMBER_OF_BYTES
  Stream #0:1(eng): Audio: aac (LC), 48000 Hz, stereo, fltp (default)
      Metadata:
        HANDLER_NAME    : SoundHandler
        VENDOR_ID       : [0][0][0][0]
        ENCODER         : Lavc61.19.100 aac
        BPS             : 187484
        DURATION        : 00:02:56.704000000
        NUMBER_OF_FRAMES: 8284
        NUMBER_OF_BYTES : 4141163
        _STATISTICS_WRITING_APP: mkvpropedit v66.0.0 ('Josie') 64-bit
        _STATISTICS_WRITING_DATE_UTC: 2025-06-28 15:55:47
        _STATISTICS_TAGS: BPS DURATION NUMBER_OF_FRAMES NUMBER_OF_BYTES
Input #1, mov,mp4,m4a,3gp,3g2,mj2, from 'G:\Аниме\Онгоинги\!_37_Зима_2025\JamClub\Господин и пёс\JamClub_Tono_to_Inu_Woof_Woof!_S01E09_1080p.mp4':
  Metadata:
    major_brand     : qt  
    minor_version   : 512
    compatible_brands: qt  
    encoder         : Lavf54.18.100
  Duration: 00:02:56.70, start: 0.000000, bitrate: 2075 kb/s
  Stream #1:0[0x1](eng): Video: h264 (High) (avc1 / 0x31637661), yuv420p(progressive), 1920x1080 [SAR 1:1 DAR 16:9], 1942 kb/s, 23.98 fps, 23.98 tbr, 24k tbn (default)
      Metadata:
        handler_name    : VideoHandler
        vendor_id       : FFMP
        encoder         : libx264
  Stream #1:1[0x2](eng): Audio: aac (LC) (mp4a / 0x6134706D), 48000 Hz, stereo, fltp, 128 kb/s (default)
      Metadata:
        handler_name    : SoundHandler
        vendor_id       : [0][0][0][0]
Stream mapping:
  Stream #0:0 (hevc) -> settb:default
  Stream #1:0 (h264) -> settb:default
  psnr:default -> Stream #0:0 (wrapped_avframe)
  Stream #0:1 -> #0:1 (aac (native) -> pcm_s16le (native))
[swscaler @ 0000025658ee3680] No accelerated colorspace conversion found from yuv420p to bgr48le.
[swscaler @ 0000025658ff42c0] No accelerated colorspace conversion found from yuv420p to bgr48le.
[swscaler @ 00000256591b9600] No accelerated colorspace conversion found from yuv420p to bgr48le.
[swscaler @ 00000256592c74c0] No accelerated colorspace conversion found from yuv420p to bgr48le.
[swscaler @ 000002565945dc80] No accelerated colorspace conversion found from yuv420p to bgr48le.
[swscaler @ 000002565947a4c0] No accelerated colorspace conversion found from yuv420p to bgr48le.
[swscaler @ 000002565970f040] No accelerated colorspace conversion found from yuv420p to bgr48le.
[swscaler @ 000002565976b040] No accelerated colorspace conversion found from yuv420p to bgr48le.
[swscaler @ 000002565978e6c0] No accelerated colorspace conversion found from yuv420p to bgr48le.
[swscaler @ 000002565f7b1040] No accelerated colorspace conversion found from yuv420p to bgr48le.
[swscaler @ 000002565f852c80] No accelerated colorspace conversion found from yuv420p to bgr48le.
[swscaler @ 000002565f946000] No accelerated colorspace conversion found from yuv420p to bgr48le.
[swscaler @ 000002565fb40040] No accelerated colorspace conversion found from yuv420p to bgr48le.
[swscaler @ 000002565fb5a000] No accelerated colorspace conversion found from yuv420p to bgr48le.
[swscaler @ 000002565fdd7d40] No accelerated colorspace conversion found from yuv420p to bgr48le.
[swscaler @ 000002565ff0d040] No accelerated colorspace conversion found from yuv420p to bgr48le.
Output #0, null, to 'pipe:':
  Metadata:
    COMPATIBLE_BRANDS: qt  
    MAJOR_BRAND     : qt  
    MINOR_VERSION   : 512
    encoder         : Lavf61.7.100
  Stream #0:0: Video: wrapped_avframe, yuv420p10le(tv, bt709, progressive), 1920x1080 [SAR 1:1 DAR 16:9], q=2-31, 200 kb/s, 23.98 fps, 23.98 tbn
      Metadata:
        encoder         : Lavc61.19.100 wrapped_avframe
  Stream #0:1(eng): Audio: pcm_s16le, 48000 Hz, stereo, s16, 1536 kb/s (default)
      Metadata:
        HANDLER_NAME    : SoundHandler
        VENDOR_ID       : [0][0][0][0]
        _STATISTICS_TAGS: BPS DURATION NUMBER_OF_FRAMES NUMBER_OF_BYTES
        BPS             : 187484
        DURATION        : 00:02:56.704000000
        NUMBER_OF_FRAMES: 8284
        NUMBER_OF_BYTES : 4141163
        _STATISTICS_WRITING_APP: mkvpropedit v66.0.0 ('Josie') 64-bit
        _STATISTICS_WRITING_DATE_UTC: 2025-06-28 15:55:47
        encoder         : Lavc61.19.100 pcm_s16le
frame=   30 fps=0.0 q=-0.0 size=N/A time=00:00:01.25 bitrate=N/A speed=2.41x    frame=   69 fps= 66 q=-0.0 size=N/A time=00:00:02.87 bitrate=N/A speed=2.76x    frame=  106 fps= 69 q=-0.0 size=N/A time=00:00:04.42 bitrate=N/A speed=2.86x    frame=  144 fps= 70 q=-0.0 size=N/A time=00:00:06.00 bitrate=N/A speed= 2.9x    frame=  181 fps= 70 q=-0.0 size=N/A time=00:00:07.54 bitrate=N/A speed=2.93x    frame=  214 fps= 69 q=-0.0 size=N/A time=00:00:08.92 bitrate=N/A speed=2.88x    frame=  254 fps= 70 q=-0.0 size=N/A time=00:00:10.59 bitrate=N/A speed=2.93x    frame=  290 fps= 70 q=-0.0 size=N/A time=00:00:12.09 bitrate=N/A speed=2.93x    frame=  329 fps= 71 q=-0.0 size=N/A time=00:00:13.72 bitrate=N/A speed=2.95x    frame=  365 fps= 71 q=-0.0 size=N/A time=00:00:15.22 bitrate=N/A speed=2.95x    frame=  403 fps= 71 q=-0.0 size=N/A time=00:00:16.80 bitrate=N/A speed=2.96x    frame=  441 fps= 71 q=-0.0 size=N/A time=00:00:18.39 bitrate=N/A speed=2.97x    frame=  480 fps= 71 q=-0.0 size=N/A time=00:00:20.02 bitrate=N/A speed=2.98x    frame=  511 fps= 71 q=-0.0 size=N/A time=00:00:21.31 bitrate=N/A speed=2.95x    frame=  549 fps= 71 q=-0.0 size=N/A time=00:00:22.89 bitrate=N/A speed=2.96x    frame=  594 fps= 72 q=-0.0 size=N/A time=00:00:24.77 bitrate=N/A speed=   3x    frame=  632 fps= 72 q=-0.0 size=N/A time=00:00:26.35 bitrate=N/A speed=   3x    frame=  670 fps= 72 q=-0.0 size=N/A time=00:00:27.94 bitrate=N/A speed=3.01x    frame=  708 fps= 72 q=-0.0 size=N/A time=00:00:29.52 bitrate=N/A speed=3.01x    frame=  746 fps= 72 q=-0.0 size=N/A time=00:00:31.11 bitrate=N/A speed=3.02x    frame=  784 fps= 72 q=-0.0 size=N/A time=00:00:32.69 bitrate=N/A speed=3.02x    frame=  817 fps= 72 q=-0.0 size=N/A time=00:00:34.07 bitrate=N/A speed=   3x    frame=  858 fps= 72 q=-0.0 size=N/A time=00:00:35.78 bitrate=N/A speed=3.02x    frame=  895 fps= 72 q=-0.0 size=N/A time=00:00:37.32 bitrate=N/A speed=3.02x    frame=  933 fps= 72 q=-0.0 size=N/A time=00:00:38.91 bitrate=N/A speed=3.02x    frame=  966 fps= 72 q=-0.0 size=N/A time=00:00:40.29 bitrate=N/A speed=   3x    frame= 1009 fps= 72 q=-0.0 size=N/A time=00:00:42.08 bitrate=N/A speed=3.02x    frame= 1047 fps= 72 q=-0.0 size=N/A time=00:00:43.66 bitrate=N/A speed=3.02x    frame= 1083 fps= 72 q=-0.0 size=N/A time=00:00:45.17 bitrate=N/A speed=3.02x    frame= 1119 fps= 72 q=-0.0 size=N/A time=00:00:46.67 bitrate=N/A speed=3.01x    frame= 1162 fps= 73 q=-0.0 size=N/A time=00:00:48.46 bitrate=N/A speed=3.03x    frame= 1201 fps= 73 q=-0.0 size=N/A time=00:00:50.09 bitrate=N/A speed=3.03x    frame= 1240 fps= 73 q=-0.0 size=N/A time=00:00:51.71 bitrate=N/A speed=3.04x    frame= 1272 fps= 72 q=-0.0 size=N/A time=00:00:53.05 bitrate=N/A speed=3.02x    frame= 1309 fps= 73 q=-0.0 size=N/A time=00:00:54.59 bitrate=N/A speed=3.02x    frame= 1355 fps= 73 q=-0.0 size=N/A time=00:00:56.51 bitrate=N/A speed=3.04x    frame= 1388 fps= 73 q=-0.0 size=N/A time=00:00:57.89 bitrate=N/A speed=3.03x    frame= 1428 fps= 73 q=-0.0 size=N/A time=00:00:59.55 bitrate=N/A speed=3.04x    frame= 1465 fps= 73 q=-0.0 size=N/A time=00:01:01.10 bitrate=N/A speed=3.04x    frame= 1503 fps= 73 q=-0.0 size=N/A time=00:01:02.68 bitrate=N/A speed=3.04x    frame= 1540 fps= 73 q=-0.0 size=N/A time=00:01:04.23 bitrate=N/A speed=3.04x    frame= 1579 fps= 73 q=-0.0 size=N/A time=00:01:05.85 bitrate=N/A speed=3.04x    frame= 1616 fps= 73 q=-0.0 size=N/A time=00:01:07.40 bitrate=N/A speed=3.04x    frame= 1653 fps= 73 q=-0.0 size=N/A time=00:01:08.94 bitrate=N/A speed=3.04x    frame= 1686 fps= 73 q=-0.0 size=N/A time=00:01:10.32 bitrate=N/A speed=3.03x    frame= 1730 fps= 73 q=-0.0 size=N/A time=00:01:12.15 bitrate=N/A speed=3.04x    frame= 1767 fps= 73 q=-0.0 size=N/A time=00:01:13.69 bitrate=N/A speed=3.04x    frame= 1806 fps= 73 q=-0.0 size=N/A time=00:01:15.32 bitrate=N/A speed=3.04x    frame= 1845 fps= 73 q=-0.0 size=N/A time=00:01:16.95 bitrate=N/A speed=3.05x    frame= 1880 fps= 73 q=-0.0 size=N/A time=00:01:18.41 bitrate=N/A speed=3.04x    frame= 1921 fps= 73 q=-0.0 size=N/A time=00:01:20.12 bitrate=N/A speed=3.05x    frame= 1960 fps= 73 q=-0.0 size=N/A time=00:01:21.74 bitrate=N/A speed=3.05x    frame= 1998 fps= 73 q=-0.0 size=N/A time=00:01:23.33 bitrate=N/A speed=3.05x    frame= 2036 fps= 73 q=-0.0 size=N/A time=00:01:24.91 bitrate=N/A speed=3.05x    frame= 2071 fps= 73 q=-0.0 size=N/A time=00:01:26.37 bitrate=N/A speed=3.04x    frame= 2113 fps= 73 q=-0.0 size=N/A time=00:01:28.12 bitrate=N/A speed=3.05x    frame= 2152 fps= 73 q=-0.0 size=N/A time=00:01:29.75 bitrate=N/A speed=3.05x    frame= 2189 fps= 73 q=-0.0 size=N/A time=00:01:31.29 bitrate=N/A speed=3.05x    frame= 2229 fps= 73 q=-0.0 size=N/A time=00:01:32.96 bitrate=N/A speed=3.06x    frame= 2268 fps= 73 q=-0.0 size=N/A time=00:01:34.59 bitrate=N/A speed=3.06x    frame= 2307 fps= 73 q=-0.0 size=N/A time=00:01:36.22 bitrate=N/A speed=3.06x    frame= 2337 fps= 73 q=-0.0 size=N/A time=00:01:37.47 bitrate=N/A speed=3.05x    frame= 2384 fps= 73 q=-0.0 size=N/A time=00:01:39.43 bitrate=N/A speed=3.06x    frame= 2421 fps= 73 q=-0.0 size=N/A time=00:01:40.97 bitrate=N/A speed=3.06x    frame= 2459 fps= 73 q=-0.0 size=N/A time=00:01:42.56 bitrate=N/A speed=3.06x    frame= 2496 fps= 73 q=-0.0 size=N/A time=00:01:44.10 bitrate=N/A speed=3.06x    frame= 2535 fps= 73 q=-0.0 size=N/A time=00:01:45.73 bitrate=N/A speed=3.06x    frame= 2572 fps= 73 q=-0.0 size=N/A time=00:01:47.27 bitrate=N/A speed=3.06x    frame= 2609 fps= 73 q=-0.0 size=N/A time=00:01:48.81 bitrate=N/A speed=3.06x    frame= 2644 fps= 73 q=-0.0 size=N/A time=00:01:50.27 bitrate=N/A speed=3.05x    frame= 2687 fps= 73 q=-0.0 size=N/A time=00:01:52.07 bitrate=N/A speed=3.06x    frame= 2725 fps= 73 q=-0.0 size=N/A time=00:01:53.65 bitrate=N/A speed=3.06x    frame= 2761 fps= 73 q=-0.0 size=N/A time=00:01:55.15 bitrate=N/A speed=3.06x    frame= 2800 fps= 73 q=-0.0 size=N/A time=00:01:56.78 bitrate=N/A speed=3.06x    frame= 2840 fps= 73 q=-0.0 size=N/A time=00:01:58.45 bitrate=N/A speed=3.06x    frame= 2878 fps= 73 q=-0.0 size=N/A time=00:02:00.03 bitrate=N/A speed=3.06x    frame= 2916 fps= 73 q=-0.0 size=N/A time=00:02:01.62 bitrate=N/A speed=3.06x    frame= 2948 fps= 73 q=-0.0 size=N/A time=00:02:02.95 bitrate=N/A speed=3.06x    frame= 2991 fps= 73 q=-0.0 size=N/A time=00:02:04.74 bitrate=N/A speed=3.06x    frame= 3030 fps= 73 q=-0.0 size=N/A time=00:02:06.37 bitrate=N/A speed=3.06x    frame= 3067 fps= 73 q=-0.0 size=N/A time=00:02:07.91 bitrate=N/A speed=3.06x    frame= 3105 fps= 73 q=-0.0 size=N/A time=00:02:09.50 bitrate=N/A speed=3.06x    frame= 3143 fps= 73 q=-0.0 size=N/A time=00:02:11.08 bitrate=N/A speed=3.06x    frame= 3181 fps= 73 q=-0.0 size=N/A time=00:02:12.67 bitrate=N/A speed=3.06x    frame= 3215 fps= 73 q=-0.0 size=N/A time=00:02:14.09 bitrate=N/A speed=3.06x    frame= 3258 fps= 73 q=-0.0 size=N/A time=00:02:15.88 bitrate=N/A speed=3.06x    frame= 3293 fps= 73 q=-0.0 size=N/A time=00:02:17.34 bitrate=N/A speed=3.06x    frame= 3336 fps= 73 q=-0.0 size=N/A time=00:02:19.13 bitrate=N/A speed=3.06x    frame= 3373 fps= 73 q=-0.0 size=N/A time=00:02:20.68 bitrate=N/A speed=3.06x    frame= 3412 fps= 73 q=-0.0 size=N/A time=00:02:22.30 bitrate=N/A speed=3.06x    frame= 3435 fps= 73 q=-0.0 size=N/A time=00:02:23.26 bitrate=N/A speed=3.05x    frame= 3488 fps= 73 q=-0.0 size=N/A time=00:02:25.47 bitrate=N/A speed=3.06x    frame= 3526 fps= 73 q=-0.0 size=N/A time=00:02:27.06 bitrate=N/A speed=3.07x    frame= 3564 fps= 73 q=-0.0 size=N/A time=00:02:28.64 bitrate=N/A speed=3.06x    frame= 3603 fps= 73 q=-0.0 size=N/A time=00:02:30.27 bitrate=N/A speed=3.07x    frame= 3640 fps= 73 q=-0.0 size=N/A time=00:02:31.81 bitrate=N/A speed=3.06x    frame= 3669 fps= 73 q=-0.0 size=N/A time=00:02:33.02 bitrate=N/A speed=3.06x    frame= 3716 fps= 73 q=-0.0 size=N/A time=00:02:34.98 bitrate=N/A speed=3.07x    frame= 3755 fps= 73 q=-0.0 size=N/A time=00:02:36.61 bitrate=N/A speed=3.07x    frame= 3793 fps= 74 q=-0.0 size=N/A time=00:02:38.19 bitrate=N/A speed=3.07x    frame= 3830 fps= 73 q=-0.0 size=N/A time=00:02:39.74 bitrate=N/A speed=3.06x    frame= 3868 fps= 73 q=-0.0 size=N/A time=00:02:41.32 bitrate=N/A speed=3.07x    frame= 3900 fps= 73 q=-0.0 size=N/A time=00:02:42.66 bitrate=N/A speed=3.06x    frame= 3943 fps= 73 q=-0.0 size=N/A time=00:02:44.45 bitrate=N/A speed=3.06x    frame= 3976 fps= 73 q=-0.0 size=N/A time=00:02:45.83 bitrate=N/A speed=3.06x    frame= 4018 fps= 73 q=-0.0 size=N/A time=00:02:47.58 bitrate=N/A speed=3.06x    frame= 4056 fps= 73 q=-0.0 size=N/A time=00:02:49.16 bitrate=N/A speed=3.06x    frame= 4093 fps= 73 q=-0.0 size=N/A time=00:02:50.71 bitrate=N/A speed=3.06x    frame= 4125 fps= 73 q=-0.0 size=N/A time=00:02:52.04 bitrate=N/A speed=3.06x    frame= 4170 fps= 73 q=-0.0 size=N/A time=00:02:53.92 bitrate=N/A speed=3.06x    frame= 4208 fps= 73 q=-0.0 size=N/A time=00:02:55.50 bitrate=N/A speed=3.06x    [Parsed_psnr_10 @ 0000025641e78900] PSNR y:45.742965 u:49.461667 v:49.461944 average:46.667539 min:38.075730 max:inf
[out#0/null @ 0000025641543dc0] video:1820KiB audio:33136KiB subtitle:0KiB other streams:0KiB global headers:0KiB muxing overhead: unknown
frame= 4236 fps= 74 q=-0.0 Lsize=N/A time=00:02:56.67 bitrate=N/A speed=3.07x    
